<?xml version="1.0" encoding="utf-8" ?>
<svg xmlns="http://www.w3.org/2000/svg" xmlns:xlink="http://www.w3.org/1999/xlink" width="838" height="187">
	<clipPath id="cl_3">
		<rect y="0.00018310547" width="838.1814" height="186.578"/>
	</clipPath>
	<g clip-path="url(#cl_3)">
		<path fill="#E3E3E3" transform="translate(-103.397 -391.225)" d="M739.768 456.232C742.218 456.134 744.626 456.15 747.071 456.342C758.109 457.206 764.257 461.791 771.213 469.977C772.091 467.227 772.453 460.849 774.287 458.954C776.72 456.442 791.761 457.695 795.7 457.795C795.774 457.984 795.868 458.167 795.923 458.362C796.258 459.564 796.18 460.97 795.885 462.176C795.511 463.704 794.807 465.149 794.431 466.698C789.312 487.776 785.747 509.382 781.181 530.607C779.404 538.868 778.696 549.43 774.926 556.915C770.65 556.898 754.23 557.791 751.416 555.685C750.947 554.378 751.042 553.581 751.246 552.195C751.265 552.067 751.5 550.658 751.487 550.459C751.47 550.191 751.357 549.938 751.292 549.677C751.759 547.81 752.259 545.945 752.659 544.062C746.006 550.642 739.098 556.215 729.779 558.272C720.464 560.328 710.076 558.552 702.052 553.317C694.28 548.246 689.458 540.113 687.58 531.12C684.156 514.714 688.554 495.982 697.706 482.132C703.457 473.429 715.131 462.388 725.162 459.067C729.605 457.597 734.272 457.44 738.79 456.453L739.768 456.232ZM735.626 533.038C743.662 531.491 749.728 526.347 754.227 519.737C759.254 512.351 762.481 502.046 760.62 493.12C759.651 488.469 757.316 484.467 753.186 481.983C749.164 479.564 744.57 478.842 739.946 479.214C732.185 480.562 725.886 485.67 721.453 492.008C715.96 499.862 712.203 510.797 714.001 520.435C714.806 524.745 716.781 528.793 720.585 531.193C724.191 533.468 730.377 534.409 734.56 533.387C735.015 533.275 735.152 533.209 735.626 533.038Z"/>
		<path fill="#E3E3E3" transform="translate(-103.397 -391.225)" d="M561.552 456.211C567.984 455.959 574.838 456.954 580.766 459.545C587.812 462.625 594.405 468.655 597.1 475.907C600.209 484.276 599.687 504.161 595.987 512.183C594.359 513.424 592.692 513.791 590.677 514.05C585.543 514.711 580.034 514.267 574.857 514.252C562.736 514.216 550.532 513.914 538.42 514.083C537.111 514.102 535.87 514.03 534.939 514.988C534.164 518.425 533.798 521.883 534.633 525.345C534.692 525.589 534.761 525.83 534.818 526.074C535.094 527.253 535.148 528 536.01 528.923C539.286 532.429 540.942 536.251 546.215 537.045C560.556 539.203 569.646 532.795 580.606 524.722C584.458 528.065 587.33 532.229 590.376 536.282C591.224 537.195 591.666 537.915 592.15 539.063C592.132 540.169 592.102 541.037 591.566 542.032C588.379 547.944 572.973 555.332 566.505 557.19C553.183 561.015 537.974 561.004 525.637 554.034C517.049 549.181 511.202 541.819 508.621 532.283C504.438 516.826 508.55 500.274 516.447 486.755C523.857 474.072 535.223 462.361 549.737 458.238C553.331 457.217 557.15 457.469 560.695 456.467C560.982 456.385 561.266 456.296 561.552 456.211ZM555.956 495.344C562.016 495.295 568.144 495.422 574.194 495.127C574.748 490.878 575.713 485.826 572.98 482.075C571.164 479.583 568.002 478.541 565.056 478.184C562.626 477.891 560.133 478.023 557.697 478.169C549.708 481.425 544.193 485.549 540.757 493.766C540.519 494.335 540.44 494.624 540.237 495.242C545.475 495.454 550.715 495.309 555.956 495.344Z"/>
		<path fill="#E3E3E3" transform="translate(-103.397 -391.225)" d="M191.633 398.219C197.247 398.053 204.38 397.887 209.695 399.904C211.342 400.529 212.289 401.164 213 402.822C213.038 405.788 210.077 422.273 208.377 424.024C207.913 424.502 207.72 424.515 206.956 424.522C204.087 424.55 199.017 421.569 193.56 421.79C187.759 422.024 182.4 424.446 178.567 428.831C173.517 434.611 172.032 441.734 169.986 448.888C169.366 451.055 168.273 453.578 168.442 455.844C171.604 460.488 185.783 455.738 191.503 458.205C192.05 459.727 189.319 474.996 188.489 476.961C185.814 483.294 170.144 476.088 164.996 479.003C162.314 480.522 161.405 495.294 160.874 498.523C160.509 500.745 159.519 502.73 159.122 504.928L153.616 535.397C152.622 540.982 152.18 547.617 150.051 552.868C149.681 553.78 149.24 554.387 148.484 555.033C148.167 555.303 139.181 560.263 138.48 560.554C134.347 562.071 122.895 570.205 119.69 569.547C119.788 566.263 120.918 563.505 121.525 560.364C122.492 555.368 123.285 550.335 124.2 545.329L136.199 479.361L135.551 478.934C134.926 479.133 134.373 479.321 133.712 479.359C129.853 479.583 119.276 479.931 116.502 477.501C115.567 476.683 115.243 475.725 115.199 474.485C115.163 473.437 118.639 459.38 119.072 459.013C122.643 455.985 135.769 457.499 140.636 457.595C141.979 454.312 142.262 450.469 142.841 446.981C144.273 438.349 146.767 430.479 151.396 422.986C157.226 413.548 167.626 404.084 178.379 400.761C182.391 399.522 186.688 399.457 190.744 398.448L191.633 398.219Z"/>
		<path fill="#E3E3E3" transform="translate(-103.397 -391.225)" d="M201.245 457.721C208.844 457.953 219.437 456.471 226.535 458.016C228.933 462.722 215.216 512.196 214.893 523.702C214.807 526.771 215.179 530.162 217.509 532.398C220.05 534.835 223.888 535.432 227.273 535.353C230.337 535.281 233.298 533.996 235.912 532.478C248.365 525.248 249.314 509.277 251.913 496.612C253.599 488.394 255.427 480.195 256.969 471.949C257.774 467.645 258.101 460.953 261.27 457.731C263 457.327 280.557 457.572 283.266 457.865C284.486 457.996 285.357 458.138 286.173 459.09C285.251 465.158 283.164 471.377 282.71 477.444C282.688 477.735 282.672 478.028 282.653 478.32L282.441 478.59C281.753 484.626 279.8 490.955 278.558 496.948C274.966 514.276 273.136 531.064 260.407 544.558C251.033 554.496 238.405 559.424 224.839 559.732C214.836 559.96 204.075 557.966 196.708 550.673C190.632 544.658 188.444 535.261 188.476 526.959C188.492 522.772 189.042 518.589 189.687 514.458C191.588 502.288 194.363 490.177 196.758 478.092C197.957 472.036 198.64 465.724 200.13 459.745C200.364 458.808 200.561 458.395 201.245 457.721Z"/>
		<path fill="#E3E3E3" transform="translate(-103.397 -391.225)" d="M366.148 457.321C373.104 458.955 385.954 456.019 391.166 457.781C392.011 458.806 392.037 459.857 391.943 461.129C391.576 466.087 389.691 470.995 388.734 475.864C388.273 478.205 388.192 480.612 387.735 482.965C385.773 493.072 383.408 503.013 381.646 513.15C380.975 517.016 379.552 520.941 379.474 524.87C379.446 526.306 379.793 527.461 380.381 528.766C381.638 531.56 383.574 533.706 386.528 534.707C390.82 536.161 396.616 535.043 400.576 533.06C413.847 526.414 415.278 508.753 417.764 496.02C419.233 488.495 421.193 481.066 422.619 473.532C423.572 468.495 423.838 463.561 425.48 458.621C430.88 456.672 444.977 457.774 451.44 457.676C451.017 463.37 450.284 469.691 448.433 475.097C448.376 475.571 448.317 476.045 448.233 476.515C447.165 482.465 445.809 488.365 444.764 494.328C441.013 515.736 436.929 538.034 417.729 551.36C407.049 558.771 391.874 561.117 379.236 558.829C371.213 557.377 363.291 553.916 358.604 546.912C354.543 540.841 353.446 532.586 353.528 525.416C353.643 515.24 356.266 505.085 358.293 495.16L366.148 457.321Z"/>
		<path fill="#E3E3E3" transform="translate(-103.397 -391.225)" d="M312.049 435.689C319.029 435.8 329.399 434.523 335.91 435.848C337.267 439.167 333.229 450.354 332.719 454.543C332.558 455.863 332.492 456.607 333.368 457.657C341.63 457.73 349.982 458.047 358.232 457.59C358.636 463.836 355.961 472.935 354.872 479.307C346.038 479.192 336.726 478.493 327.932 479.316C326.066 483.866 319.863 519.186 319.437 525.487C319.245 528.339 319.367 531.226 320.234 533.96C325.993 539.965 333.776 533.835 340.179 534.435C340.972 534.509 341.022 534.982 341.44 535.584C341.717 538.334 340.717 541.244 340.094 543.916C338.939 547.783 339.276 554.252 335.524 556.714C329.909 560.398 318.979 559.943 312.585 558.721C305.996 557.461 300.039 554.451 296.332 548.654C288.659 536.652 294.417 517.17 296.876 504.277L301.75 478.777C297.341 478.646 292.984 478.704 288.578 478.886C288.408 478.592 288.204 478.315 288.067 478.004C286.759 475.019 290.255 462.021 291.316 458.531C294.315 456.002 301.607 458.487 305.558 457.615C309.209 456.81 308.542 440.287 312.049 435.689Z"/>
		<path fill="#E3E3E3" transform="translate(-103.397 -391.225)" d="M660.591 456.235C662.501 456.174 664.411 456.157 666.321 456.182C675.505 456.308 685.891 458.012 692.536 464.844C688.368 471.598 684.633 478.984 681.151 486.122C674.968 482.177 669.747 479.491 662.214 479.468C654.417 479.445 647.734 482.743 642.338 488.244C634.381 496.355 630.916 506.032 631.135 517.268C631.239 522.647 632.603 527.873 636.714 531.618C639.169 533.853 642.256 534.904 645.503 535.325C657.725 536.909 664.528 528.671 670.465 528.549C674.686 531.141 676.094 537.607 679.042 541.525L679.684 543.56C679.335 545.743 677.321 547.376 675.648 548.647C664.466 557.101 650.394 560.789 636.503 558.907C626.513 557.579 617.243 552.635 611.13 544.519C604.076 535.151 602.542 521.564 604.174 510.253C606.319 495.386 613.414 480.68 625.084 470.972C628.752 467.921 632.966 465.636 636.746 462.753C641.62 459.036 651.151 457.297 657.162 456.854C658.068 456.787 658.868 456.711 659.75 456.474C660.032 456.398 660.311 456.315 660.591 456.235Z"/>
		<path fill="#E3E3E3" transform="translate(-103.397 -391.225)" d="M890.014 435.208C897.374 435.258 904.711 435.748 912.1 435.733C912.997 438.357 909.32 453.12 908.465 456.542L908.295 457.208C912.095 459.618 924.79 456.759 930.016 457.268C931.733 457.436 932.433 458.023 933.436 459.359C934.092 462.554 930.931 475.599 929.781 479.299C922.947 479.309 910.739 477.949 904.593 479.567C904.47 479.781 904.339 479.991 904.223 480.208C903.027 482.447 895.779 520.237 895.332 524.737C895.089 527.182 894.772 531.336 895.793 533.543C898.867 540.188 913.014 532.951 916.545 534.49C917.314 536.92 915.761 541.07 915.308 543.624C914.069 547.581 914.75 552.223 912.126 555.712C910.66 557.662 907.672 558.157 905.389 558.528C896.662 559.946 884.75 559.957 877.394 554.392C861.633 542.47 871.947 508.641 875.467 492.411C876.309 488.525 878.101 483.46 877.524 479.533C873.15 478.429 868.303 480.545 864.097 478.306C863.675 477.701 863.169 477.266 863.157 476.494C863.128 474.698 864.313 472.713 864.711 470.929C865.707 466.461 866.322 461.817 867.12 457.302C871.655 457.872 877.672 458.252 882.115 457.328C885.794 453.98 884.364 441.84 887.143 436.823C887.918 435.425 888.546 435.553 890.014 435.208Z"/>
		<path fill="#E3E3E3" transform="translate(-103.397 -391.225)" d="M835.46 456.237C839.071 456.178 842.556 456.512 846.105 457.161C849.879 457.851 856.999 458.475 859.255 461.762C858.724 465.439 854.543 482.541 852.739 484.5L851.956 484.447C848.617 480.553 843.372 478.746 838.361 478.253C834.623 477.885 829.897 478.253 826.977 480.908C825.331 482.405 824.575 484.532 824.655 486.738C824.712 488.309 825.076 489.363 826.207 490.468C831.096 495.244 841.82 498.359 848.166 504.292C852.21 508.073 854.573 512.558 854.715 518.135C854.982 528.635 852.079 538.714 844.63 546.332C833.643 557.571 821.892 559.182 806.931 559.252C804.936 558.557 802.601 558.341 800.505 558.038C796.375 557.442 788.672 554.54 785.176 552.237C784.287 551.652 784.283 551.461 784.07 550.483C786.51 546.588 788.775 542.045 790.302 537.704C791.392 534.606 792.073 531.247 793.645 528.363L794.501 528.23C794.636 528.354 794.769 528.482 794.907 528.603C800.85 533.782 808.236 536.234 816.085 535.739C820.036 535.49 824.792 534.583 827.42 531.321C828.64 529.807 829.542 527.235 829.156 525.279C828.206 520.477 811.579 513.447 807.226 510.261C802.315 506.667 798.675 501.616 797.863 495.481C796.75 487.068 799.637 478.504 804.8 471.901C812.839 461.619 822.94 457.811 835.46 456.237Z"/>
		<path fill="#E3E3E3" transform="translate(-103.397 -391.225)" d="M507.943 456.7C511.617 456.307 516.648 455.496 519.829 457.71C519.995 459.593 516.475 478.722 515.376 480.036C514.217 481.421 504.787 480.376 502.221 481.049C498.545 482.012 495.059 483.048 491.878 485.225C479.863 493.45 478.754 511.43 476.293 524.452C474.838 532.154 473.097 539.801 471.593 547.494C471.167 549.675 471.17 552.14 470.579 554.246C470.243 555.442 469.585 556.079 468.471 556.603C466.648 557.46 447.188 556.869 445.002 555.974L444.615 554.882C444.866 549.907 446.561 544.329 447.482 539.361C449.923 526.18 452.439 513.013 455.029 499.861C457.473 487.475 459.736 469.529 463.327 457.928L464.738 458.044L464.731 457.809C473.222 457.463 481.826 457.8 490.336 457.735C488.407 462.28 487.383 467.059 486.21 471.84C486.445 471.478 486.686 471.121 486.933 470.768C491.728 463.962 499.713 458.219 507.943 456.7Z"/>
	</g>
</svg>
